<svg width="280" height="281" viewBox="0 0 280 281" fill="none" xmlns="http://www.w3.org/2000/svg">
<path opacity="0.51" fill-rule="evenodd" clip-rule="evenodd" d="M279.185 128.325C279 126.202 278.768 124.093 278.489 121.999L160.494 2.28567C158.404 1.97658 156.298 1.71374 154.179 1.49822L279.185 128.325ZM152.628 1.34918C150.658 1.1709 148.676 1.03346 146.684 0.937732L279.638 135.829C279.571 133.834 279.462 131.85 279.312 129.878L152.628 1.34918ZM266.527 200.009C267.125 198.735 267.705 197.45 268.266 196.154L86.2008 11.4376C84.8974 11.9795 83.604 12.5406 82.3209 13.1205L266.527 200.009ZM81.3525 13.5626C80.0885 14.1456 78.8347 14.7468 77.5914 15.3661L264.213 204.705C264.85 203.471 265.47 202.226 266.071 200.971L81.3525 13.5626ZM277.098 113.544C277.539 115.79 277.926 118.056 278.258 120.34L162.149 2.54061C164.428 2.90553 166.688 3.32548 168.928 3.79907L277.098 113.544ZM270.306 191.18C269.788 192.517 269.249 193.844 268.691 195.161L87.1999 11.0267C88.5246 10.4879 89.8595 9.96886 91.2041 9.46988L270.306 191.18ZM276.733 111.75C276.209 109.252 275.618 106.78 274.962 104.333L178.108 6.06843C175.671 5.37706 173.207 4.75012 170.717 4.18956L276.733 111.75ZM270.699 190.155C271.215 188.793 271.71 187.422 272.183 186.041L96.3706 7.66768C94.9825 8.12137 93.604 8.59619 92.2355 9.09176L270.699 190.155ZM271.776 94.0572C272.74 96.7853 273.621 99.5522 274.416 102.355L180.078 6.64325C182.87 7.47985 185.624 8.40127 188.339 9.40453L271.776 94.0572ZM273.888 180.726C273.462 182.154 273.013 183.572 272.542 184.981L97.4361 7.32415C98.851 6.87428 100.276 6.44631 101.71 6.04064L273.888 180.726ZM270.958 91.8027C269.727 88.498 268.374 85.2524 266.905 82.0713L200.256 14.4509C197.095 12.9354 193.868 11.5351 190.582 10.2555L270.958 91.8027ZM274.211 179.629C274.633 178.171 275.033 176.703 275.409 175.225L107.233 4.60019C105.75 4.9546 104.276 5.33263 102.811 5.73387L274.211 179.629ZM258.437 66.4357C261.042 70.5894 263.434 74.8897 265.599 79.3214L202.987 15.7976C207.387 18.027 211.653 20.4822 215.771 23.148L258.437 66.4357ZM276.732 169.524C276.41 171.055 276.064 172.577 275.693 174.089L108.373 4.33274C109.891 3.98364 111.417 3.65923 112.953 3.35995L276.732 169.524ZM277.842 163.606C277.579 165.195 277.29 166.775 276.974 168.345L114.135 3.13486C115.71 2.8421 117.294 2.57572 118.887 2.3362L277.842 163.606ZM219.944 25.9579C233.954 35.7602 246.085 48.0646 255.688 62.2225L219.944 25.9579ZM278.039 162.381C278.294 160.747 278.521 159.104 278.719 157.452L125.053 1.54862C123.398 1.72277 121.752 1.92579 120.114 2.15716L278.039 162.381ZM278.865 156.176C279.054 154.472 279.212 152.759 279.338 151.037L131.476 1.02128C129.753 1.12319 128.037 1.25632 126.331 1.42011L278.865 156.176ZM279.43 149.705C279.544 147.922 279.625 146.131 279.671 144.331L138.185 0.783987C136.385 0.80511 134.592 0.860254 132.809 0.948806L279.43 149.705ZM279.719 140.634C279.719 141.403 279.713 142.17 279.701 142.936L139.58 0.774444L139.86 0.77417C141.654 0.77417 143.44 0.807951 145.218 0.87491L279.68 137.296C279.706 138.405 279.719 139.518 279.719 140.634ZM263.727 205.637C263.087 206.854 262.43 208.061 261.756 209.256L73.0054 17.7572C74.2105 17.1002 75.4263 16.4604 76.6525 15.8381L263.727 205.637ZM259.16 213.667C259.87 212.508 260.564 211.339 261.242 210.159L72.095 18.2581C70.9052 18.9183 69.7261 19.5954 68.558 20.2889L259.16 213.667ZM252.975 222.904C252.192 223.979 251.394 225.043 250.581 226.094L56.0079 28.6878C57.071 27.8902 58.1459 27.1074 59.2322 26.3397L252.975 222.904ZM247.467 229.979C248.312 228.961 249.144 227.932 249.961 226.89L55.2033 29.296C54.15 30.098 53.1085 30.9147 52.0791 31.7457L247.467 229.979ZM246.822 230.749C245.971 231.757 245.107 232.754 244.229 233.737L48.2742 34.9293C49.2705 34.0654 50.279 33.2153 51.2996 32.3794L246.822 230.749ZM240.868 237.371C241.778 236.421 242.675 235.458 243.559 234.482L47.5197 35.5884C46.5314 36.4578 45.5555 37.341 44.5922 38.2376L240.868 237.371ZM240.173 238.091C239.257 239.034 238.327 239.965 237.385 240.882L41.0323 41.6698C41.9628 40.7406 42.9062 39.8245 43.8624 38.9217L240.173 238.091ZM233.78 244.268C234.754 243.384 235.716 242.487 236.666 241.576L40.3272 42.3789C39.4031 43.315 38.4921 44.264 37.5945 45.2257L233.78 244.268ZM233.036 244.938C232.054 245.816 231.059 246.68 230.052 247.53L34.279 48.9058C35.1436 47.9114 36.0221 46.9294 36.9141 45.96L233.036 244.938ZM226.202 250.668C227.241 249.851 228.268 249.02 229.284 248.175L33.6234 49.6652C32.7637 50.6682 31.918 51.6835 31.0866 52.7109L226.202 250.668ZM253.569 222.082L60.0624 25.7574C61.1597 24.9937 62.2686 24.2454 63.3885 23.5126L255.862 218.789C255.113 219.898 254.349 220.996 253.569 222.082ZM256.43 217.941L64.2448 22.9569C65.3771 22.2278 66.5206 21.5146 67.675 20.8176L258.618 214.542C257.905 215.686 257.175 216.819 256.43 217.941ZM30.456 53.4957L225.408 251.287C224.359 252.099 223.299 252.896 222.227 253.679L28.0187 56.6422C28.8165 55.5816 29.6291 54.5326 30.456 53.4957ZM27.4135 57.4528L221.408 254.272C220.325 255.05 219.231 255.813 218.125 256.561L25.0772 60.7018C25.8408 59.6073 26.6197 58.5242 27.4135 57.4528ZM205.034 264.411C206.245 263.773 207.445 263.117 208.634 262.444L19.0579 70.1072C18.3679 71.2865 17.6947 72.4768 17.0386 73.6778L205.034 264.411ZM199.44 267.204C198.175 267.801 196.898 268.38 195.612 268.94L12.3743 83.0334C12.9526 81.7554 13.5495 80.4877 14.1648 79.2306L199.44 267.204ZM190.676 270.975C192.003 270.458 193.319 269.921 194.626 269.364L11.9356 84.0128C11.36 85.3113 10.8036 86.6202 10.2668 87.9391L190.676 270.975ZM189.658 271.368C188.309 271.882 186.949 272.376 185.58 272.85L8.31872 93.0066C8.81194 91.6446 9.32572 90.2925 9.85967 88.9506L189.658 271.368ZM180.316 274.553C181.73 274.126 183.135 273.678 184.53 273.208L7.94489 94.0519C7.45485 95.4396 6.98608 96.8374 6.53899 98.2448L180.316 274.553ZM179.23 274.876C177.788 275.298 176.335 275.698 174.874 276.075L4.93809 103.665C5.33607 102.209 5.75699 100.762 6.20043 99.3259L179.23 274.876ZM169.239 277.402C170.752 277.079 172.256 276.731 173.75 276.359L4.63714 104.784C4.24352 106.272 3.87383 107.771 3.5285 109.278L169.239 277.402ZM200.396 266.749L14.6337 78.2818C15.2516 77.043 15.8875 75.8148 16.5408 74.5973L204.108 264.896C202.881 265.531 201.644 266.149 200.396 266.749ZM19.5837 69.2161L209.533 261.931C210.707 261.255 211.871 260.562 213.023 259.854L21.7116 65.7556C20.9861 66.898 20.2767 68.0516 19.5837 69.2161ZM22.2645 64.892L213.895 259.313C215.034 258.601 216.163 257.872 217.28 257.128L24.4979 61.5386C23.7378 62.645 22.9933 63.7629 22.2645 64.892ZM163.399 278.521C164.967 278.255 166.526 277.964 168.075 277.646L3.26797 110.439C2.928 111.983 2.61358 113.538 2.32516 115.101L163.399 278.521ZM162.191 278.72C160.582 278.979 158.963 279.21 157.335 279.412L1.34604 121.152C1.57243 119.527 1.82672 117.912 2.10841 116.306L162.191 278.72ZM139.86 280.494C140.934 280.494 142.006 280.481 143.075 280.457L0.0962574 135.396C0.032273 137.134 0 138.88 0 140.634L0.000282955 140.918L137.554 280.475C138.321 280.487 139.09 280.494 139.86 280.494ZM136.12 280.444C134.174 280.393 132.238 280.303 130.313 280.173L0.199257 148.164C0.0970268 146.237 0.0337991 144.3 0.0103488 142.353L136.12 280.444ZM0.28775 149.678L128.801 280.063C126.739 279.901 124.689 279.695 122.654 279.446L0.816455 155.834C0.596072 153.795 0.419517 151.743 0.28775 149.678ZM0.999969 157.445L121.046 279.239C118.84 278.942 116.651 278.594 114.48 278.196L1.94749 164.025C1.58094 161.849 1.26469 159.655 0.999969 157.445ZM105.646 276.279C107.992 276.868 110.361 277.399 112.752 277.868L2.25033 165.757C2.68522 168.155 3.18123 170.531 3.73668 172.885L105.646 276.279ZM103.761 275.79C101.115 275.085 98.4989 274.305 95.9164 273.451L6.42208 182.653C5.60611 180.059 4.86367 177.433 4.19722 174.776L103.761 275.79ZM84.8382 269.255C87.7769 270.514 90.7675 271.675 93.8058 272.734L7.10788 184.773C8.12254 187.827 9.23958 190.833 10.4549 193.789L84.8382 269.255ZM82.3591 268.164C78.5815 266.459 74.8933 264.59 71.3033 262.567L16.9435 207.416C14.974 203.798 13.1595 200.084 11.509 196.282L82.3591 268.164ZM0.153183 134.029L144.442 280.42C146.209 280.363 147.967 280.273 149.717 280.152L0.497031 128.759C0.350073 130.507 0.235259 132.264 0.153183 134.029ZM0.613047 127.452L151.025 280.054C152.718 279.921 154.403 279.757 156.079 279.563L1.17716 122.405C0.959366 124.078 0.771149 125.761 0.613047 127.452ZM68.0135 260.654L18.8082 210.732C22.7723 217.563 27.2979 224.027 32.3219 230.062L48.8779 246.859C54.842 251.972 61.2416 256.591 68.0135 260.654Z" fill="url(#paint0_linear_21_211)" fill-opacity="0.92"/>
<defs>
<linearGradient id="paint0_linear_21_211" x1="229.02" y1="280.494" x2="69.9298" y2="32.8254" gradientUnits="userSpaceOnUse">
<stop stop-color="#FF5D01"/>
<stop offset="1" stop-color="#001EBC"/>
</linearGradient>
</defs>
</svg>
